<?xml version="1.0" encoding="UTF-8" standalone="no"?>
<!-- Created with Inkscape (http://www.inkscape.org/) -->

<svg
   xmlns:dc="http://purl.org/dc/elements/1.1/"
   xmlns:cc="http://creativecommons.org/ns#"
   xmlns:rdf="http://www.w3.org/1999/02/22-rdf-syntax-ns#"
   xmlns:svg="http://www.w3.org/2000/svg"
   xmlns="http://www.w3.org/2000/svg"
   xmlns:sodipodi="http://sodipodi.sourceforge.net/DTD/sodipodi-0.dtd"
   xmlns:inkscape="http://www.inkscape.org/namespaces/inkscape"
   id="svg3336"
   version="1.1"
   inkscape:version="0.91 r13725"
   width="99.29586"
   height="99.664398"
   viewBox="0 0 99.29586 99.664398"
   sodipodi:docname="happy.svg">
  <metadata
     id="metadata3342">
    <rdf:RDF>
      <cc:Work
         rdf:about="">
        <dc:format>image/svg+xml</dc:format>
        <dc:type
           rdf:resource="http://purl.org/dc/dcmitype/StillImage" />
        <dc:title></dc:title>
      </cc:Work>
    </rdf:RDF>
  </metadata>
  <defs
     id="defs3340" />
  <sodipodi:namedview
     pagecolor="#ffffff"
     bordercolor="#666666"
     borderopacity="1"
     objecttolerance="10"
     gridtolerance="10"
     guidetolerance="10"
     inkscape:pageopacity="0"
     inkscape:pageshadow="2"
     inkscape:window-width="1280"
     inkscape:window-height="660"
     id="namedview3338"
     showgrid="false"
     inkscape:zoom="0.5"
     inkscape:cx="124.50955"
     inkscape:cy="48.299186"
     inkscape:window-x="-8"
     inkscape:window-y="-8"
     inkscape:window-maximized="1"
     inkscape:current-layer="svg3336"
     inkscape:snap-global="false"
     fit-margin-top="0"
     fit-margin-left="0"
     fit-margin-right="0"
     fit-margin-bottom="0" />
  <path
     style="fill:#008000"
     d="m 49.950957,0 c -2.268263,0 -4.536525,0.433737 -8.75,1.300782 -10.897,2.242375 -19.07643,6.500257 -26.23828,13.662109 -7.1618605,7.161851 -11.4197395,15.341277 -13.6621095,26.238281 -1.73409,8.426947 -1.73409,9.073053 0,17.5 1.00877,4.902221 3.195959,11.382084 4.974609,14.736328 4.0829005,7.699637 12.5870905,16.174506 20.1874995,20.119146 5.251441,2.72548 7.866422,3.62015 16.988281,5.80859 3.750259,0.899734 15.986175,-0.34529 21.595704,-2.19727 15.710791,-5.18688 27.7171,-17.428702 32.57812,-33.216794 2.228101,-7.236642 2.228101,-20.763358 0,-28 C 92.047421,17.836463 77.915372,5.254705 58.700957,1.300782 54.487487,0.433737 52.219222,0 49.950957,0 Z m -0.36914,6.033204 c 8.418643,-0.08639 17.028385,2.255662 24.791015,7.408203 12.30831,8.169791 19.57813,21.761362 19.57813,36.601562 0,19.323606 -13.19584,36.809387 -31.93164,42.312497 -11.838277,3.47715 -25.739684,1.23947 -36.443364,-5.86523 C 9.4975075,75.817967 2.4838955,56.567868 7.8435355,37.826172 13.464295,18.171407 31.060805,6.223266 49.581817,6.033204 Z m 13.896484,24.947265 c -1.498729,-0.0261 -2.990979,0.746429 -4.027339,2.328125 -1.560757,2.381983 -1.147339,5.457414 0.92578,6.876953 2.21985,1.520026 5.56372,0.711027 7.16601,-1.734375 1.51741,-2.315871 1.51741,-2.684129 0,-5 -1.06029,-1.618207 -2.56572,-2.444604 -4.06445,-2.470703 z m -27.125,0.05664 c -1.442061,0.03573 -2.914366,0.763134 -3.996094,2.414062 -1.51742,2.315871 -1.51742,2.684129 0,5 2.33672,3.566291 7.266582,3.487582 8.644532,-0.136718 1.556989,-4.095181 -1.475902,-7.35596 -4.648438,-7.277344 z m -6.722656,29.099609 c -0.124764,-0.01483 -0.247927,-0.01372 -0.371094,0.002 -0.328446,0.04179 -0.658062,0.187022 -1.029297,0.417969 -2.71244,1.687413 -2.640129,3.813317 0.25,7.248047 3.742801,4.448056 8.150043,7.353577 13.408203,8.839844 5.899818,1.667639 15.259687,0.872577 20.693365,-1.757813 4.93508,-2.389029 11.62777,-9.36397 11.177729,-11.648437 -0.17049,-0.865448 -1.076359,-2.056236 -2.01367,-2.646485 -1.398079,-0.880402 -2.39937,-0.320002 -5.57617,3.121094 -4.74813,5.143149 -9.510009,7.238281 -16.453129,7.238281 -6.412488,0 -11.957258,-2.62935 -16.486328,-7.814453 -1.763252,-2.018647 -2.726253,-2.896181 -3.599609,-3 z"
     id="path3346"
     inkscape:connector-curvature="0" />
</svg>
